<svg xmlns="http://www.w3.org/2000/svg" width="31.501" height="31.501"><path fill="#2f2f2f" fill-rule="evenodd" d="M9.245.191a8.685 8.685 0 00-9.116 9.1c-.072 1.583-.494 13.546.729 16.684a7.942 7.942 0 004.584 4.57 11.51 11.51 0 003.8.729c13.956.629 19.13.284 21.311-5.3a11.4 11.4 0 00.727-3.8c.638-13.985-.1-17.021-2.536-19.451-1.929-1.924-4.2-3.232-19.5-2.53m.129 28.264a8.6 8.6 0 01-2.91-.538 5.113 5.113 0 01-2.975-2.964c-.931-2.387-.622-13.707-.539-15.538a6.694 6.694 0 011.711-4.7c1.567-1.562 3.592-2.329 17.379-1.705a6.733 6.733 0 014.713 1.705c1.567 1.564 2.345 3.6 1.711 17.34a8.634 8.634 0 01-.539 2.9c-1.418 3.634-4.681 4.139-18.551 3.5M22.191 7.388a1.882 1.882 0 101.881-1.876 1.88 1.88 0 00-1.881 1.876M7.658 15.732a8.048 8.048 0 108.048-8.026 8.039 8.039 0 00-8.048 8.026m2.824 0a5.224 5.224 0 115.224 5.214 5.217 5.217 0 01-5.224-5.214"/></svg>