<svg xmlns="http://www.w3.org/2000/svg" width="35.474" height="28.378"><path fill="#2f2f2f" fill-rule="evenodd" d="M11.156 28.379A20.4 20.4 0 0031.864 7.991c0-.311 0-.62-.021-.927a14.663 14.663 0 003.631-3.709 14.706 14.706 0 01-4.179 1.128 7.218 7.218 0 003.2-3.965 14.731 14.731 0 01-4.622 1.74 7.366 7.366 0 00-10.3-.311 7.1 7.1 0 00-2.105 6.847 20.784 20.784 0 01-15-7.486 7.1 7.1 0 002.254 9.564 7.318 7.318 0 01-3.3-.9v.091a7.2 7.2 0 005.839 7.022 7.349 7.349 0 01-3.285.122 7.271 7.271 0 006.8 4.978 14.746 14.746 0 01-9.039 3.073 14.922 14.922 0 01-1.733-.1 20.85 20.85 0 0011.156 3.213"/></svg>