<svg xmlns="http://www.w3.org/2000/svg" width="104.195" height="25.254" viewBox="0 0 104.195 25.254"><path d="M-47.5-1.92A18.643,18.643,0,0,1-46.76.208a.642.642,0,0,0,.24.048.323.323,0,0,0,.176-.048c.272-.848,1.024-2.7,1.664-4.176l.864-1.968a38.608,38.608,0,0,1,1.792-3.68,1.022,1.022,0,0,1,.832-.56l.48-.032a.315.315,0,0,0-.032-.4c-.528.032-1.024.048-1.552.048-.608,0-1.216-.016-1.664-.048a.28.28,0,0,0-.032.4l.288.032c.56.064.72.192.72.3a1.7,1.7,0,0,1-.144.624c-.272.688-1.024,2.5-1.488,3.584-.368.848-1.04,2.5-1.536,3.552-.8-1.824-1.536-3.664-2.272-5.52a20.042,20.042,0,0,1-.8-2.24c.016-.128.144-.224.752-.3l.24-.032a.28.28,0,0,0-.032-.4c-.672.032-1.232.048-1.936.048-.688,0-1.2-.016-1.664-.048a.268.268,0,0,0-.032.4l.288.032c.688.08.928.416,1.3,1.312Zm12.448-.512c0,1.7-.032,1.92-.976,2.032l-.4.048a.311.311,0,0,0,.032.4C-35.592.016-35.048,0-34.376,0c.64,0,1.184.016,1.984.048.1-.048.128-.336.032-.4l-.4-.048c-.944-.112-.976-.336-.976-2.032v-5.7c0-1.7.032-1.968.976-2.048l.4-.032c.1-.064.064-.352-.032-.4-.8.032-1.344.048-1.984.048-.672,0-1.216-.016-2.016-.048-.1.048-.128.336-.032.4l.4.032c.944.08.976.352.976,2.048Zm8.064-2.784a5.158,5.158,0,0,0,2.272,4.4A7.009,7.009,0,0,0-20.728.256,9.429,9.429,0,0,0-18.2-.112a3.222,3.222,0,0,1,.56-.16,6.014,6.014,0,0,0,.768-2.192.336.336,0,0,0-.416-.064A3.411,3.411,0,0,1-20.632-.24c-2.624,0-4.752-1.856-4.752-5.216,0-3.312,2.08-4.864,4.528-4.864,2.32,0,3.04,1.248,3.28,2.336a.337.337,0,0,0,.432-.032c-.128-.976-.208-1.984-.224-2.352a1.207,1.207,0,0,1-.448-.064,12.346,12.346,0,0,0-2.832-.384,6.9,6.9,0,0,0-4.32,1.36A5.315,5.315,0,0,0-26.984-5.216Zm20.32-4.3c0-.528-.016-.544.464-.544h1.136a3.191,3.191,0,0,1,1.856.4c.24.176.352.768.4,1.168a.3.3,0,0,0,.416-.032,9.684,9.684,0,0,1,.24-2.432c-.032-.064-.208-.08-.288-.048-.24.416-.384.448-1.248.448h-6.48c-.736,0-1.264.016-1.36-.5a.4.4,0,0,0-.3,0,16.85,16.85,0,0,1-.608,2.384.309.309,0,0,0,.416.112,2.922,2.922,0,0,1,.72-1.1,3.276,3.276,0,0,1,1.968-.4h.88c.48,0,.48.016.48.512V-2.4c0,1.68-.08,1.92-.992,2l-.576.048a.279.279,0,0,0,0,.4C-8.52.016-7.96,0-7.32,0s1.184.016,2.1.048c.1-.048.128-.336.032-.4L-5.7-.4c-.928-.08-.96-.32-.96-2ZM7.928.256A5.463,5.463,0,0,0,13.48-5.328a5.266,5.266,0,0,0-5.552-5.488,5.531,5.531,0,0,0-5.7,5.648A5.388,5.388,0,0,0,7.928.256Zm.208-.5c-3.152,0-4.3-3.072-4.3-5.44,0-3.5,2.16-4.64,3.824-4.64,3.056,0,4.224,2.848,4.224,5.488C11.88-1.68,10.056-.24,8.136-.24ZM20.264-2.4c0,1.68-.032,1.888-.96,2l-.4.048a.308.308,0,0,0,.032.4c.752-.032,1.328-.048,2-.048.64,0,1.184.016,1.9.048a.313.313,0,0,0,.032-.4L22.536-.4c-.928-.128-.96-.32-.96-2V-4.416c0-.336.032-.352.752-.352a1.142,1.142,0,0,1,1.136.512c.5.72,1.152,1.824,1.568,2.416C26.168-.224,26.984.176,28.344.176a2.491,2.491,0,0,0,.7-.08.134.134,0,0,0-.016-.224,1.915,1.915,0,0,1-1.1-.448,17.257,17.257,0,0,1-3.216-4.256c-.08-.128-.16-.288-.08-.384a2.96,2.96,0,0,0,2-2.672,2.384,2.384,0,0,0-1.328-2.24,5.665,5.665,0,0,0-2.672-.48c-1.568,0-2.672.048-3.568.128a.267.267,0,0,0-.016.4l.512.064c.656.08.7.352.7,1.872Zm1.312-7.2c0-.448.048-.512,1.04-.512a2.357,2.357,0,0,1,2.56,2.464,2.3,2.3,0,0,1-.8,1.984,2.681,2.681,0,0,1-1.648.416c-.816,0-1.056-.032-1.1-.08a1.26,1.26,0,0,1-.048-.528ZM34.584-2.432c0,1.7-.032,1.92-.976,2.032l-.4.048a.311.311,0,0,0,.032.4C34.04.016,34.584,0,35.256,0c.64,0,1.184.016,1.984.048.1-.048.128-.336.032-.4l-.4-.048c-.944-.112-.976-.336-.976-2.032v-5.7c0-1.7.032-1.968.976-2.048l.4-.032c.1-.064.064-.352-.032-.4-.8.032-1.344.048-1.984.048-.672,0-1.216-.016-2.016-.048-.1.048-.128.336-.032.4l.4.032c.944.08.976.352.976,2.048Zm14.576.9a3.278,3.278,0,0,1,.208.848c0,.16-.224.256-.56.288l-.464.048a.268.268,0,0,0,.032.4C48.84.032,49.448,0,50.216,0c.72,0,1.28.016,1.936.048a.314.314,0,0,0,0-.4L51.72-.4c-.688-.08-.9-.32-1.36-1.7L48.168-8.528c-.24-.7-.5-1.44-.7-2.144a.227.227,0,0,0-.24-.144,1.794,1.794,0,0,1-.832.608,2.3,2.3,0,0,1-.272,1.136l-1.632,4.32c-.672,1.792-1.12,2.832-1.408,3.568a1.064,1.064,0,0,1-.96.784l-.528.048a.315.315,0,0,0,.032.4C42.056.032,42.632,0,43.16,0c.752.016,1.248.016,1.664.048a.257.257,0,0,0,.032-.4L44.328-.4c-.384-.032-.464-.128-.464-.32a6.117,6.117,0,0,1,.352-1.328l.56-1.68c.112-.336.208-.384.608-.384H47.8c.48,0,.544.048.656.4ZM46.3-7.92a9.752,9.752,0,0,1,.384-.944h.032a10.543,10.543,0,0,1,.368,1.008l.864,2.608c.144.432.112.5-.352.5H45.624c-.448,0-.464-.016-.336-.384ZM-28.3,13.856c-.1.276.252.312.384.312.108,0,.156-.048.2-.156l.624-1.524c.144-.36.2-.42.444-.48.216-.048.348.084.444.4a11.474,11.474,0,0,0,.552,1.284c.192.336.336.48.552.48.192,0,.792-.24,1.212-1.14,0-.1-.048-.144-.156-.144-.336.408-.564.564-.72.564-.12,0-.24-.132-.384-.4a7.131,7.131,0,0,1-.444-1.128c-.024-.072-.048-.18.036-.228a3.763,3.763,0,0,0,1.92-1.056,1.219,1.219,0,0,0,.492-.876c0-.252-.168-.66-.864-.66a2.247,2.247,0,0,0-1.3.456A5.972,5.972,0,0,0-26.52,10.8h-.024l1.236-3.552c.36-1.02.492-1.428.588-1.764l-.072-.06a6.854,6.854,0,0,0-1.464.432.108.108,0,0,0,.024.18l.216.108c.2.1.192.252-.084,1.092Zm4.236-3.924a1.527,1.527,0,0,1-.768,1.008,4.682,4.682,0,0,1-1.764.78c-.156.024-.168-.06-.12-.18a4.774,4.774,0,0,1,1.1-1.308,2.2,2.2,0,0,1,1.164-.612C-24.168,9.62-24.06,9.788-24.06,9.932Zm7.032-2.376c.432-1.3.552-1.632.708-2.064l-.06-.072a6.989,6.989,0,0,0-1.512.36.125.125,0,0,0,0,.192l.216.1c.18.084.3.2.012,1.044l-1.908,5.676a3.607,3.607,0,0,0-.264,1.02c0,.192.108.36.468.36,1,0,1.752-1,2.064-1.6A.155.155,0,0,0-17.5,12.4c-.552.624-1.116,1.212-1.38,1.212-.132,0-.144-.12-.048-.4Zm3.2,6.18a.285.285,0,0,0,.048.324.266.266,0,0,0,.192.108A3.761,3.761,0,0,0-11.34,12.74a.189.189,0,0,0-.18-.2,2.89,2.89,0,0,1-1.248.888c-.1,0-.084-.144-.036-.264l1.428-3.408c.144-.348.144-.456.072-.528-.048-.048-.108-.12-.192-.12a3.469,3.469,0,0,0-1.98,1.2.17.17,0,0,0,.156.2,2.767,2.767,0,0,1,1-.636c.084,0,.084.1.024.228Zm2.544-7.1c-.468,0-.636.492-.636.756a.407.407,0,0,0,.42.444.706.706,0,0,0,.624-.744C-10.872,6.824-11,6.632-11.28,6.632ZM-5.172,9.6C-5.064,9.32-5.2,9.1-5.484,9.1A2.547,2.547,0,0,0-7.272,10.22a.15.15,0,0,0,.144.18,2.086,2.086,0,0,1,1.092-.6c.1,0,.1.12.036.276l-1.392,3.78c-.108.276.216.312.348.312.108,0,.156-.036.216-.144a19.852,19.852,0,0,1,1.836-3.048c.66-.828,1.368-1.428,1.656-1.428.18,0,.192.144.192.288a2.819,2.819,0,0,1-.252.876c-.276.6-.72,1.776-.972,2.364s-.288.684-.288.792a.357.357,0,0,0,.288.3A2.806,2.806,0,0,0-2.3,12.824c0-.1-.024-.192-.192-.168a2.48,2.48,0,0,1-1.128.816c-.084,0-.072-.108-.024-.228.036-.1.9-2.052,1.116-2.652a3.293,3.293,0,0,0,.192-.84A.59.59,0,0,0-3.012,9.1c-.9,0-2.088,1.32-2.94,2.616l-.036-.024Zm6.7,4.14a.285.285,0,0,0,.048.324.266.266,0,0,0,.192.108A3.761,3.761,0,0,0,4.008,12.74a.189.189,0,0,0-.18-.2,2.89,2.89,0,0,1-1.248.888c-.1,0-.084-.144-.036-.264L3.972,9.752c.144-.348.144-.456.072-.528C4,9.176,3.936,9.1,3.852,9.1a3.469,3.469,0,0,0-1.98,1.2.17.17,0,0,0,.156.2,2.767,2.767,0,0,1,1-.636c.084,0,.084.1.024.228Zm2.544-7.1c-.468,0-.636.492-.636.756a.407.407,0,0,0,.42.444.706.706,0,0,0,.624-.744C4.476,6.824,4.344,6.632,4.068,6.632Zm3.648,7.224c-.1.276.252.312.384.312.108,0,.156-.048.2-.156l.624-1.524c.144-.36.2-.42.444-.48.216-.048.348.084.444.4a11.474,11.474,0,0,0,.552,1.284c.192.336.336.48.552.48.192,0,.792-.24,1.212-1.14,0-.1-.048-.144-.156-.144-.336.408-.564.564-.72.564-.12,0-.24-.132-.384-.4a7.131,7.131,0,0,1-.444-1.128c-.024-.072-.048-.18.036-.228a3.763,3.763,0,0,0,1.92-1.056,1.219,1.219,0,0,0,.492-.876c0-.252-.168-.66-.864-.66a2.247,2.247,0,0,0-1.3.456A5.972,5.972,0,0,0,9.492,10.8H9.468L10.7,7.244c.36-1.02.492-1.428.588-1.764l-.072-.06a6.854,6.854,0,0,0-1.464.432.108.108,0,0,0,.024.18L10,6.14c.2.1.192.252-.084,1.092Zm4.236-3.924a1.527,1.527,0,0,1-.768,1.008,4.682,4.682,0,0,1-1.764.78c-.156.024-.168-.06-.12-.18a4.774,4.774,0,0,1,1.1-1.308,2.2,2.2,0,0,1,1.164-.612C11.844,9.62,11.952,9.788,11.952,9.932ZM19.368,9.1a2.3,2.3,0,0,0-1.44.576,4.51,4.51,0,0,0-1.788,3.228c0,.588.252,1.26.972,1.26a2.45,2.45,0,0,0,1.92-1.092.161.161,0,0,0-.156-.2c-.528.456-.828.7-1.26.7a.615.615,0,0,1-.576-.684,3.02,3.02,0,0,1,.168-1.068c1.728-.48,2.916-1.08,2.916-1.992A.752.752,0,0,0,19.368,9.1Zm-.24.372a.256.256,0,0,1,.276.276,1.354,1.354,0,0,1-.468.816,3.487,3.487,0,0,1-1.608.888,4.776,4.776,0,0,1,.888-1.4C18.648,9.584,18.96,9.476,19.128,9.476ZM25.7,9.6c.108-.276-.024-.492-.312-.492A2.547,2.547,0,0,0,23.6,10.22a.15.15,0,0,0,.144.18,2.086,2.086,0,0,1,1.092-.6c.1,0,.1.12.036.276l-1.392,3.78c-.108.276.216.312.348.312.108,0,.156-.036.216-.144a19.852,19.852,0,0,1,1.836-3.048c.66-.828,1.368-1.428,1.656-1.428.18,0,.192.144.192.288a2.819,2.819,0,0,1-.252.876c-.276.6-.72,1.776-.972,2.364s-.288.684-.288.792a.357.357,0,0,0,.288.3,2.806,2.806,0,0,0,2.064-1.344c0-.1-.024-.192-.192-.168a2.48,2.48,0,0,1-1.128.816c-.084,0-.072-.108-.024-.228.036-.1.9-2.052,1.116-2.652a3.293,3.293,0,0,0,.192-.84.59.59,0,0,0-.672-.648c-.9,0-2.088,1.32-2.94,2.616l-.036-.024Z" transform="translate(51.971 11.086)"/></svg>